<?xml version="1.0" standalone="no"?>
<svg height="1700" width="5100" version="1.2" id="toplevel"
    xmlns="http://www.w3.org/2000/svg"
    xmlns:xlink="http://www.w3.org/1999/xlink">
  <rect x="0" y="0" width="100%" height="100%" fill="white"/>
  <text x="0" y="0" stroke="black" fill="black" font-family="Times, serif"
       font-size="35" text-anchor="end" transform="translate(60,30) rotate(270)">
    Intervalle aus »L'antica musica«, auf der Basis von 31ed2.
  </text>
  <line x1="181.00" y1="0" x2="181.00" y2="100%" stroke="black" stroke-width="3"/>
  <circle cx="181.00" cy="50" r="4" fill="black"/>
  <circle cx="181.00" cy="50" r="4" fill="black"/>
  <line x1="181.00" y1="50" x2="181.00" y2="50" stroke="black" stroke-width="3"/>
  <text x="196.00" y="56" font-size="25" font-family="Times, serif"
       stroke="black" fill="black">
    unisono, unisonanza
  </text>
  <line x1="186.31" y1="0" x2="186.31" y2="100%" stroke="gray" stroke-width="1"/>
  <circle cx="181.00" cy="80" r="4" fill="black"/>
  <circle cx="186.31" cy="80" r="4" fill="black"/>
  <line x1="181.00" y1="80" x2="186.31" y2="80" stroke="black" stroke-width="3"/>
  <text x="201.31" y="86" font-size="25" font-family="Times, serif"
       stroke="black" fill="black">
    comma [¼ syntonisches Komma]
  </text>
  <line x1="202.23" y1="0" x2="202.23" y2="100%" stroke="gray" stroke-width="1"/>
  <circle cx="181.00" cy="110" r="4" fill="black"/>
  <circle cx="202.23" cy="110" r="4" fill="black"/>
  <line x1="181.00" y1="110" x2="202.23" y2="110" stroke="black"
        stroke-width="3"/>
  <text x="217.23" y="116" font-size="25" font-family="Times, serif"
       stroke="black" fill="black">
    comma [1 syntonisches Komma]
  </text>
  <line x1="219.21" y1="0" x2="219.21" y2="100%" stroke="gray" stroke-width="1"/>
  <circle cx="181.00" cy="140" r="4" fill="black"/>
  <circle cx="219.21" cy="140" r="4" fill="black"/>
  <line x1="181.00" y1="140" x2="219.21" y2="140" stroke="black"
        stroke-width="3"/>
  <text x="234.21" y="146" font-size="25" font-family="Times, serif"
       stroke="black" fill="black">
    diesis enarmonico minore
  </text>
  <line x1="257.41" y1="0" x2="257.41" y2="100%" stroke="gray" stroke-width="1"/>
  <circle cx="181.00" cy="170" r="4" fill="black"/>
  <circle cx="257.41" cy="170" r="4" fill="black"/>
  <line x1="181.00" y1="170" x2="257.41" y2="170" stroke="black"
        stroke-width="3"/>
  <text x="272.41" y="176" font-size="25" font-family="Times, serif"
       stroke="black" fill="black">
    diesis enarmonico maggiore
  </text>
  <line x1="257.41" y1="0" x2="257.41" y2="100%" stroke="gray" stroke-width="1"/>
  <circle cx="181.00" cy="200" r="4" fill="black"/>
  <circle cx="257.41" cy="200" r="4" fill="black"/>
  <line x1="181.00" y1="200" x2="257.41" y2="200" stroke="black"
        stroke-width="3"/>
  <text x="272.41" y="206" font-size="25" font-family="Times, serif"
       stroke="black" fill="black">
    semitono minore
  </text>
  <line x1="295.62" y1="0" x2="295.62" y2="100%" stroke="gray" stroke-width="1"/>
  <circle cx="181.00" cy="230" r="4" fill="black"/>
  <circle cx="295.62" cy="230" r="4" fill="black"/>
  <line x1="181.00" y1="230" x2="295.62" y2="230" stroke="black"
        stroke-width="3"/>
  <text x="310.62" y="236" font-size="25" font-family="Times, serif"
       stroke="black" fill="black">
    semitono maggiore naturale
  </text>
  <line x1="295.62" y1="0" x2="295.62" y2="100%" stroke="gray" stroke-width="1"/>
  <circle cx="181.00" cy="260" r="4" fill="black"/>
  <circle cx="295.62" cy="260" r="4" fill="black"/>
  <line x1="181.00" y1="260" x2="295.62" y2="260" stroke="black"
        stroke-width="3"/>
  <text x="310.62" y="266" font-size="25" font-family="Times, serif"
       stroke="black" fill="black">
    semitono maggiore accidentale
  </text>
  <line x1="333.83" y1="0" x2="333.83" y2="100%" stroke="gray" stroke-width="1"/>
  <circle cx="181.00" cy="290" r="4" fill="black"/>
  <circle cx="333.83" cy="290" r="4" fill="black"/>
  <line x1="181.00" y1="290" x2="333.83" y2="290" stroke="black"
        stroke-width="3"/>
  <text x="348.83" y="296" font-size="25" font-family="Times, serif"
       stroke="black" fill="black">
    tono minore accidentale
  </text>
  <line x1="372.03" y1="0" x2="372.03" y2="100%" stroke="gray" stroke-width="1"/>
  <circle cx="181.00" cy="320" r="4" fill="black"/>
  <circle cx="372.03" cy="320" r="4" fill="black"/>
  <line x1="181.00" y1="320" x2="372.03" y2="320" stroke="black"
        stroke-width="3"/>
  <text x="387.03" y="326" font-size="25" font-family="Times, serif"
       stroke="black" fill="black">
    tono naturale
  </text>
  <line x1="372.03" y1="0" x2="372.03" y2="100%" stroke="gray" stroke-width="1"/>
  <circle cx="181.00" cy="350" r="4" fill="black"/>
  <circle cx="372.03" cy="350" r="4" fill="black"/>
  <line x1="181.00" y1="350" x2="372.03" y2="350" stroke="black"
        stroke-width="3"/>
  <text x="387.03" y="356" font-size="25" font-family="Times, serif"
       stroke="black" fill="black">
    tono accidentale
  </text>
  <line x1="410.24" y1="0" x2="410.24" y2="100%" stroke="gray" stroke-width="1"/>
  <circle cx="181.00" cy="380" r="4" fill="black"/>
  <circle cx="410.24" cy="380" r="4" fill="black"/>
  <line x1="181.00" y1="380" x2="410.24" y2="380" stroke="black"
        stroke-width="3"/>
  <text x="425.24" y="386" font-size="25" font-family="Times, serif"
       stroke="black" fill="black">
    tono maggiore accidentale
  </text>
  <line x1="448.45" y1="0" x2="448.45" y2="100%" stroke="gray" stroke-width="1"/>
  <circle cx="181.00" cy="410" r="4" fill="black"/>
  <circle cx="448.45" cy="410" r="4" fill="black"/>
  <line x1="181.00" y1="410" x2="448.45" y2="410" stroke="black"
        stroke-width="3"/>
  <text x="463.45" y="416" font-size="25" font-family="Times, serif"
       stroke="black" fill="black">
    tono maggiore accidentale propinqua
  </text>
  <line x1="448.45" y1="0" x2="448.45" y2="100%" stroke="gray" stroke-width="1"/>
  <circle cx="181.00" cy="440" r="4" fill="black"/>
  <circle cx="448.45" cy="440" r="4" fill="black"/>
  <line x1="181.00" y1="440" x2="448.45" y2="440" stroke="black"
        stroke-width="3"/>
  <text x="463.45" y="446" font-size="25" font-family="Times, serif"
       stroke="black" fill="black">
    terza minima
  </text>
  <line x1="448.45" y1="0" x2="448.45" y2="100%" stroke="gray" stroke-width="1"/>
  <circle cx="181.00" cy="470" r="4" fill="black"/>
  <circle cx="448.45" cy="470" r="4" fill="black"/>
  <line x1="181.00" y1="470" x2="448.45" y2="470" stroke="black"
        stroke-width="3"/>
  <text x="463.45" y="476" font-size="25" font-family="Times, serif"
       stroke="black" fill="black">
    terza manca del minore
  </text>
  <line x1="486.65" y1="0" x2="486.65" y2="100%" stroke="gray" stroke-width="1"/>
  <circle cx="181.00" cy="500" r="4" fill="black"/>
  <circle cx="486.65" cy="500" r="4" fill="black"/>
  <line x1="181.00" y1="500" x2="486.65" y2="500" stroke="black"
        stroke-width="3"/>
  <text x="501.65" y="506" font-size="25" font-family="Times, serif"
       stroke="black" fill="black">
    terza minore naturale
  </text>
  <line x1="486.65" y1="0" x2="486.65" y2="100%" stroke="gray" stroke-width="1"/>
  <circle cx="181.00" cy="530" r="4" fill="black"/>
  <circle cx="486.65" cy="530" r="4" fill="black"/>
  <line x1="181.00" y1="530" x2="486.65" y2="530" stroke="black"
        stroke-width="3"/>
  <text x="501.65" y="536" font-size="25" font-family="Times, serif"
       stroke="black" fill="black">
    terza minore accidentale
  </text>
  <line x1="492.54" y1="0" x2="492.54" y2="100%" stroke="gray" stroke-width="1"/>
  <circle cx="181.00" cy="560" r="4" fill="black"/>
  <circle cx="492.54" cy="560" r="4" fill="black"/>
  <line x1="181.00" y1="560" x2="492.54" y2="560" stroke="black"
        stroke-width="3"/>
  <text x="507.54" y="566" font-size="25" font-family="Times, serif"
       stroke="black" fill="black">
    terza minore propinquissima
  </text>
  <line x1="524.86" y1="0" x2="524.86" y2="100%" stroke="gray" stroke-width="1"/>
  <circle cx="181.00" cy="590" r="4" fill="black"/>
  <circle cx="524.86" cy="590" r="4" fill="black"/>
  <line x1="181.00" y1="590" x2="524.86" y2="590" stroke="black"
        stroke-width="3"/>
  <text x="539.86" y="596" font-size="25" font-family="Times, serif"
       stroke="black" fill="black">
    terza minore propinqua
  </text>
  <line x1="524.86" y1="0" x2="524.86" y2="100%" stroke="gray" stroke-width="1"/>
  <circle cx="181.00" cy="620" r="4" fill="black"/>
  <circle cx="524.86" cy="620" r="4" fill="black"/>
  <line x1="181.00" y1="620" x2="524.86" y2="620" stroke="black"
        stroke-width="3"/>
  <text x="539.86" y="626" font-size="25" font-family="Times, serif"
       stroke="black" fill="black">
    terza più che minore
  </text>
  <line x1="563.06" y1="0" x2="563.06" y2="100%" stroke="gray" stroke-width="1"/>
  <circle cx="181.00" cy="650" r="4" fill="black"/>
  <circle cx="563.06" cy="650" r="4" fill="black"/>
  <line x1="181.00" y1="650" x2="563.06" y2="650" stroke="black"
        stroke-width="3"/>
  <text x="578.06" y="656" font-size="25" font-family="Times, serif"
       stroke="black" fill="black">
    terza maggiore naturale
  </text>
  <line x1="563.06" y1="0" x2="563.06" y2="100%" stroke="gray" stroke-width="1"/>
  <circle cx="181.00" cy="680" r="4" fill="black"/>
  <circle cx="563.06" cy="680" r="4" fill="black"/>
  <line x1="181.00" y1="680" x2="563.06" y2="680" stroke="black"
        stroke-width="3"/>
  <text x="578.06" y="686" font-size="25" font-family="Times, serif"
       stroke="black" fill="black">
    terza maggiore accidentale
  </text>
  <line x1="567.60" y1="0" x2="567.60" y2="100%" stroke="gray" stroke-width="1"/>
  <circle cx="181.00" cy="710" r="4" fill="black"/>
  <circle cx="567.60" cy="710" r="4" fill="black"/>
  <line x1="181.00" y1="710" x2="567.60" y2="710" stroke="black"
        stroke-width="3"/>
  <text x="582.60" y="716" font-size="25" font-family="Times, serif"
       stroke="black" fill="black">
    terza maggiore propinquissima
  </text>
  <line x1="601.27" y1="0" x2="601.27" y2="100%" stroke="gray" stroke-width="1"/>
  <circle cx="181.00" cy="740" r="4" fill="black"/>
  <circle cx="601.27" cy="740" r="4" fill="black"/>
  <line x1="181.00" y1="740" x2="601.27" y2="740" stroke="black"
        stroke-width="3"/>
  <text x="616.27" y="746" font-size="25" font-family="Times, serif"
       stroke="black" fill="black">
    terza maggiore propinqua
  </text>
  <line x1="601.27" y1="0" x2="601.27" y2="100%" stroke="gray" stroke-width="1"/>
  <circle cx="181.00" cy="770" r="4" fill="black"/>
  <circle cx="601.27" cy="770" r="4" fill="black"/>
  <line x1="181.00" y1="770" x2="601.27" y2="770" stroke="black"
        stroke-width="3"/>
  <text x="616.27" y="776" font-size="25" font-family="Times, serif"
       stroke="black" fill="black">
    terza più che maggiore
  </text>
  <line x1="639.48" y1="0" x2="639.48" y2="100%" stroke="gray" stroke-width="1"/>
  <circle cx="181.00" cy="800" r="4" fill="black"/>
  <circle cx="639.48" cy="800" r="4" fill="black"/>
  <line x1="181.00" y1="800" x2="639.48" y2="800" stroke="black"
        stroke-width="3"/>
  <text x="654.48" y="806" font-size="25" font-family="Times, serif"
       stroke="black" fill="black">
    [quarta minima]
  </text>
  <line x1="677.68" y1="0" x2="677.68" y2="100%" stroke="gray" stroke-width="1"/>
  <circle cx="181.00" cy="830" r="4" fill="black"/>
  <circle cx="677.68" cy="830" r="4" fill="black"/>
  <line x1="181.00" y1="830" x2="677.68" y2="830" stroke="black"
        stroke-width="3"/>
  <text x="692.68" y="836" font-size="25" font-family="Times, serif"
       stroke="black" fill="black">
    quarta naturale
  </text>
  <line x1="677.68" y1="0" x2="677.68" y2="100%" stroke="gray" stroke-width="1"/>
  <circle cx="181.00" cy="860" r="4" fill="black"/>
  <circle cx="677.68" cy="860" r="4" fill="black"/>
  <line x1="181.00" y1="860" x2="677.68" y2="860" stroke="black"
        stroke-width="3"/>
  <text x="692.68" y="866" font-size="25" font-family="Times, serif"
       stroke="black" fill="black">
    quarta accidentale
  </text>
  <line x1="683.18" y1="0" x2="683.18" y2="100%" stroke="gray" stroke-width="1"/>
  <circle cx="181.00" cy="890" r="4" fill="black"/>
  <circle cx="683.18" cy="890" r="4" fill="black"/>
  <line x1="181.00" y1="890" x2="683.18" y2="890" stroke="black"
        stroke-width="3"/>
  <text x="698.18" y="896" font-size="25" font-family="Times, serif"
       stroke="black" fill="black">
    quarta propinquissima
  </text>
  <line x1="715.89" y1="0" x2="715.89" y2="100%" stroke="gray" stroke-width="1"/>
  <circle cx="181.00" cy="920" r="4" fill="black"/>
  <circle cx="715.89" cy="920" r="4" fill="black"/>
  <line x1="181.00" y1="920" x2="715.89" y2="920" stroke="black"
        stroke-width="3"/>
  <text x="730.89" y="926" font-size="25" font-family="Times, serif"
       stroke="black" fill="black">
    quarta propinqua
  </text>
  <line x1="715.89" y1="0" x2="715.89" y2="100%" stroke="gray" stroke-width="1"/>
  <circle cx="181.00" cy="950" r="4" fill="black"/>
  <circle cx="715.89" cy="950" r="4" fill="black"/>
  <line x1="181.00" y1="950" x2="715.89" y2="950" stroke="black"
        stroke-width="3"/>
  <text x="730.89" y="956" font-size="25" font-family="Times, serif"
       stroke="black" fill="black">
    salto più che di quarta
  </text>
  <line x1="754.10" y1="0" x2="754.10" y2="100%" stroke="gray" stroke-width="1"/>
  <circle cx="181.00" cy="980" r="4" fill="black"/>
  <circle cx="754.10" cy="980" r="4" fill="black"/>
  <line x1="181.00" y1="980" x2="754.10" y2="980" stroke="black"
        stroke-width="3"/>
  <text x="769.10" y="986" font-size="25" font-family="Times, serif"
       stroke="black" fill="black">
    tritono naturale
  </text>
  <line x1="754.10" y1="0" x2="754.10" y2="100%" stroke="gray" stroke-width="1"/>
  <circle cx="181.00" cy="1010" r="4" fill="black"/>
  <circle cx="754.10" cy="1010" r="4" fill="black"/>
  <line x1="181.00" y1="1010" x2="754.10" y2="1010" stroke="black"
        stroke-width="3"/>
  <text x="769.10" y="1016" font-size="25" font-family="Times, serif"
       stroke="black" fill="black">
    tritono accidentale
  </text>
  <line x1="792.30" y1="0" x2="792.30" y2="100%" stroke="gray" stroke-width="1"/>
  <circle cx="181.00" cy="1040" r="4" fill="black"/>
  <circle cx="792.30" cy="1040" r="4" fill="black"/>
  <line x1="181.00" y1="1040" x2="792.30" y2="1040" stroke="black"
        stroke-width="3"/>
  <text x="807.30" y="1046" font-size="25" font-family="Times, serif"
       stroke="black" fill="black">
    quinta imperfetta
  </text>
  <line x1="830.51" y1="0" x2="830.51" y2="100%" stroke="gray" stroke-width="1"/>
  <circle cx="181.00" cy="1070" r="4" fill="black"/>
  <circle cx="830.51" cy="1070" r="4" fill="black"/>
  <line x1="181.00" y1="1070" x2="830.51" y2="1070" stroke="black"
        stroke-width="3"/>
  <text x="845.51" y="1076" font-size="25" font-family="Times, serif"
       stroke="black" fill="black">
    quinta imperfetta propinqua
  </text>
  <line x1="830.51" y1="0" x2="830.51" y2="100%" stroke="gray" stroke-width="1"/>
  <circle cx="181.00" cy="1100" r="4" fill="black"/>
  <circle cx="830.51" cy="1100" r="4" fill="black"/>
  <line x1="181.00" y1="1100" x2="830.51" y2="1100" stroke="black"
        stroke-width="3"/>
  <text x="845.51" y="1106" font-size="25" font-family="Times, serif"
       stroke="black" fill="black">
    quinta più che imperfetta
  </text>
  <line x1="868.72" y1="0" x2="868.72" y2="100%" stroke="gray" stroke-width="1"/>
  <circle cx="181.00" cy="1130" r="4" fill="black"/>
  <circle cx="868.72" cy="1130" r="4" fill="black"/>
  <line x1="181.00" y1="1130" x2="868.72" y2="1130" stroke="black"
        stroke-width="3"/>
  <text x="883.72" y="1136" font-size="25" font-family="Times, serif"
       stroke="black" fill="black">
    quinta naturale
  </text>
  <line x1="868.72" y1="0" x2="868.72" y2="100%" stroke="gray" stroke-width="1"/>
  <circle cx="181.00" cy="1160" r="4" fill="black"/>
  <circle cx="868.72" cy="1160" r="4" fill="black"/>
  <line x1="181.00" y1="1160" x2="868.72" y2="1160" stroke="black"
        stroke-width="3"/>
  <text x="883.72" y="1166" font-size="25" font-family="Times, serif"
       stroke="black" fill="black">
    quinta accidentale
  </text>
  <line x1="873.83" y1="0" x2="873.83" y2="100%" stroke="gray" stroke-width="1"/>
  <circle cx="181.00" cy="1190" r="4" fill="black"/>
  <circle cx="873.83" cy="1190" r="4" fill="black"/>
  <line x1="181.00" y1="1190" x2="873.83" y2="1190" stroke="black"
        stroke-width="3"/>
  <text x="888.83" y="1196" font-size="25" font-family="Times, serif"
       stroke="black" fill="black">
    quinta propinquissima
  </text>
  <line x1="906.92" y1="0" x2="906.92" y2="100%" stroke="gray" stroke-width="1"/>
  <circle cx="181.00" cy="1220" r="4" fill="black"/>
  <circle cx="906.92" cy="1220" r="4" fill="black"/>
  <line x1="181.00" y1="1220" x2="906.92" y2="1220" stroke="black"
        stroke-width="3"/>
  <text x="921.92" y="1226" font-size="25" font-family="Times, serif"
       stroke="black" fill="black">
    quinta propinqua
  </text>
  <line x1="906.92" y1="0" x2="906.92" y2="100%" stroke="gray" stroke-width="1"/>
  <circle cx="181.00" cy="1250" r="4" fill="black"/>
  <circle cx="906.92" cy="1250" r="4" fill="black"/>
  <line x1="181.00" y1="1250" x2="906.92" y2="1250" stroke="black"
        stroke-width="3"/>
  <text x="921.92" y="1256" font-size="25" font-family="Times, serif"
       stroke="black" fill="black">
    salto più che di quinta
  </text>
  <line x1="1365.40" y1="0" x2="1365.40" y2="100%" stroke="gray"
        stroke-width="1"/>
  <circle cx="181.00" cy="1280" r="4" fill="black"/>
  <circle cx="1365.40" cy="1280" r="4" fill="black"/>
  <line x1="181.00" y1="1280" x2="1365.40" y2="1280" stroke="black"
        stroke-width="3"/>
  <text x="1380.40" y="1286" font-size="25" font-family="Times, serif"
       stroke="black" fill="black">
    ottava
  </text>
</svg>
