<?xml version="1.0" standalone="no"?>
<svg height="2200" width="5100" version="1.2" id="toplevel"
    xmlns="http://www.w3.org/2000/svg"
    xmlns:xlink="http://www.w3.org/1999/xlink">
  <rect x="0" y="0" width="100%" height="100%" fill="white"/>
  <text x="0" y="0" stroke="black" fill="black" font-family="Times, serif"
       font-size="35" text-anchor="end" transform="translate(60,30) rotate(270)">
    Intervalle aus »L'antica musica«, auf der Basis von ¼-Komma-mitteltönig, G♭·-B♯.
  </text>
  <line x1="181.00" y1="0" x2="181.00" y2="100%" stroke="black" stroke-width="3"/>
  <circle cx="181.00" cy="50" r="4" fill="black"/>
  <circle cx="181.00" cy="50" r="4" fill="black"/>
  <line x1="181.00" y1="50" x2="181.00" y2="50" stroke="black" stroke-width="3"/>
  <text x="196.00" y="56" font-size="25" font-family="Times, serif"
       stroke="black" fill="black">
    unisono, unisonanza
  </text>
  <line x1="186.31" y1="0" x2="186.31" y2="100%" stroke="gray" stroke-width="1"/>
  <circle cx="181.00" cy="80" r="4" fill="black"/>
  <circle cx="186.31" cy="80" r="4" fill="black"/>
  <line x1="181.00" y1="80" x2="186.31" y2="80" stroke="black" stroke-width="3"/>
  <text x="201.31" y="86" font-size="25" font-family="Times, serif"
       stroke="black" fill="black">
    comma [¼ syntonisches Komma]
  </text>
  <line x1="186.99" y1="0" x2="186.99" y2="100%" stroke="gray" stroke-width="1"/>
  <circle cx="181.00" cy="110" r="4" fill="black"/>
  <circle cx="186.99" cy="110" r="4" fill="black"/>
  <line x1="181.00" y1="110" x2="186.99" y2="110" stroke="black"
        stroke-width="3"/>
  <text x="201.99" y="116" font-size="25" font-family="Times, serif"
       stroke="black" fill="black">
    Unterschied zwischen 31 ¼-Komma-Quinten und 1:1.
  </text>
  <line x1="202.23" y1="0" x2="202.23" y2="100%" stroke="gray" stroke-width="1"/>
  <circle cx="181.00" cy="140" r="4" fill="black"/>
  <circle cx="202.23" cy="140" r="4" fill="black"/>
  <line x1="181.00" y1="140" x2="202.23" y2="140" stroke="black"
        stroke-width="3"/>
  <text x="217.23" y="146" font-size="25" font-family="Times, serif"
       stroke="black" fill="black">
    comma [1 syntonisches Komma]
  </text>
  <line x1="215.54" y1="0" x2="215.54" y2="100%" stroke="gray" stroke-width="1"/>
  <circle cx="181.00" cy="170" r="4" fill="black"/>
  <circle cx="215.54" cy="170" r="4" fill="black"/>
  <line x1="181.00" y1="170" x2="215.54" y2="170" stroke="black"
        stroke-width="3"/>
  <text x="230.54" y="176" font-size="25" font-family="Times, serif"
       stroke="black" fill="black">
    diesis enarmonico minore [temperiert]
  </text>
  <line x1="221.52" y1="0" x2="221.52" y2="100%" stroke="gray" stroke-width="1"/>
  <circle cx="181.00" cy="200" r="4" fill="black"/>
  <circle cx="221.52" cy="200" r="4" fill="black"/>
  <line x1="181.00" y1="200" x2="221.52" y2="200" stroke="black"
        stroke-width="3"/>
  <text x="236.52" y="206" font-size="25" font-family="Times, serif"
       stroke="black" fill="black">
    diesis enarmonico minore [mitteltönig, 128:125]
  </text>
  <line x1="256.06" y1="0" x2="256.06" y2="100%" stroke="gray" stroke-width="1"/>
  <circle cx="181.00" cy="230" r="4" fill="black"/>
  <circle cx="256.06" cy="230" r="4" fill="black"/>
  <line x1="181.00" y1="230" x2="256.06" y2="230" stroke="black"
        stroke-width="3"/>
  <text x="271.06" y="236" font-size="25" font-family="Times, serif"
       stroke="black" fill="black">
    diesis enarmonico maggiore [mitteltönig]
  </text>
  <line x1="256.06" y1="0" x2="256.06" y2="100%" stroke="gray" stroke-width="1"/>
  <circle cx="181.00" cy="260" r="4" fill="black"/>
  <circle cx="256.06" cy="260" r="4" fill="black"/>
  <line x1="181.00" y1="260" x2="256.06" y2="260" stroke="black"
        stroke-width="3"/>
  <text x="271.06" y="266" font-size="25" font-family="Times, serif"
       stroke="black" fill="black">
    semitono minore [mitteltönig]
  </text>
  <line x1="262.05" y1="0" x2="262.05" y2="100%" stroke="gray" stroke-width="1"/>
  <circle cx="181.00" cy="290" r="4" fill="black"/>
  <circle cx="262.05" cy="290" r="4" fill="black"/>
  <line x1="181.00" y1="290" x2="262.05" y2="290" stroke="black"
        stroke-width="3"/>
  <text x="277.05" y="296" font-size="25" font-family="Times, serif"
       stroke="black" fill="black">
    diesis enarmonico maggiore [abweichend]
  </text>
  <line x1="262.05" y1="0" x2="262.05" y2="100%" stroke="gray" stroke-width="1"/>
  <circle cx="181.00" cy="320" r="4" fill="black"/>
  <circle cx="262.05" cy="320" r="4" fill="black"/>
  <line x1="181.00" y1="320" x2="262.05" y2="320" stroke="black"
        stroke-width="3"/>
  <text x="277.05" y="326" font-size="25" font-family="Times, serif"
       stroke="black" fill="black">
    semitono minore [abweichend]
  </text>
  <line x1="290.60" y1="0" x2="290.60" y2="100%" stroke="gray" stroke-width="1"/>
  <circle cx="181.00" cy="350" r="4" fill="black"/>
  <circle cx="290.60" cy="350" r="4" fill="black"/>
  <line x1="181.00" y1="350" x2="290.60" y2="350" stroke="black"
        stroke-width="3"/>
  <text x="305.60" y="356" font-size="25" font-family="Times, serif"
       stroke="black" fill="black">
    semitono maggiore accidentale [abweichend]
  </text>
  <line x1="296.59" y1="0" x2="296.59" y2="100%" stroke="gray" stroke-width="1"/>
  <circle cx="181.00" cy="380" r="4" fill="black"/>
  <circle cx="296.59" cy="380" r="4" fill="black"/>
  <line x1="181.00" y1="380" x2="296.59" y2="380" stroke="black"
        stroke-width="3"/>
  <text x="311.59" y="386" font-size="25" font-family="Times, serif"
       stroke="black" fill="black">
    semitono maggiore naturale [mitteltönig]
  </text>
  <line x1="296.59" y1="0" x2="296.59" y2="100%" stroke="gray" stroke-width="1"/>
  <circle cx="181.00" cy="410" r="4" fill="black"/>
  <circle cx="296.59" cy="410" r="4" fill="black"/>
  <line x1="181.00" y1="410" x2="296.59" y2="410" stroke="black"
        stroke-width="3"/>
  <text x="311.59" y="416" font-size="25" font-family="Times, serif"
       stroke="black" fill="black">
    semitono maggiore accidentale [mitteltönig]
  </text>
  <line x1="331.12" y1="0" x2="331.12" y2="100%" stroke="gray" stroke-width="1"/>
  <circle cx="181.00" cy="440" r="4" fill="black"/>
  <circle cx="331.12" cy="440" r="4" fill="black"/>
  <line x1="181.00" y1="440" x2="331.12" y2="440" stroke="black"
        stroke-width="3"/>
  <text x="346.12" y="446" font-size="25" font-family="Times, serif"
       stroke="black" fill="black">
    tono minore accidentale [abweichend]
  </text>
  <line x1="337.11" y1="0" x2="337.11" y2="100%" stroke="gray" stroke-width="1"/>
  <circle cx="181.00" cy="470" r="4" fill="black"/>
  <circle cx="337.11" cy="470" r="4" fill="black"/>
  <line x1="181.00" y1="470" x2="337.11" y2="470" stroke="black"
        stroke-width="3"/>
  <text x="352.11" y="476" font-size="25" font-family="Times, serif"
       stroke="black" fill="black">
    tono minore accidentale [mitteltönig]
  </text>
  <line x1="371.65" y1="0" x2="371.65" y2="100%" stroke="gray" stroke-width="1"/>
  <circle cx="181.00" cy="500" r="4" fill="black"/>
  <circle cx="371.65" cy="500" r="4" fill="black"/>
  <line x1="181.00" y1="500" x2="371.65" y2="500" stroke="black"
        stroke-width="3"/>
  <text x="386.65" y="506" font-size="25" font-family="Times, serif"
       stroke="black" fill="black">
    tono naturale [mitteltönig]
  </text>
  <line x1="371.65" y1="0" x2="371.65" y2="100%" stroke="gray" stroke-width="1"/>
  <circle cx="181.00" cy="530" r="4" fill="black"/>
  <circle cx="371.65" cy="530" r="4" fill="black"/>
  <line x1="181.00" y1="530" x2="371.65" y2="530" stroke="black"
        stroke-width="3"/>
  <text x="386.65" y="536" font-size="25" font-family="Times, serif"
       stroke="black" fill="black">
    tono accidentale [mitteltönig]
  </text>
  <line x1="377.63" y1="0" x2="377.63" y2="100%" stroke="gray" stroke-width="1"/>
  <circle cx="181.00" cy="560" r="4" fill="black"/>
  <circle cx="377.63" cy="560" r="4" fill="black"/>
  <line x1="181.00" y1="560" x2="377.63" y2="560" stroke="black"
        stroke-width="3"/>
  <text x="392.63" y="566" font-size="25" font-family="Times, serif"
       stroke="black" fill="black">
    tono accidentale [abweichend]
  </text>
  <line x1="406.18" y1="0" x2="406.18" y2="100%" stroke="gray" stroke-width="1"/>
  <circle cx="181.00" cy="590" r="4" fill="black"/>
  <circle cx="406.18" cy="590" r="4" fill="black"/>
  <line x1="181.00" y1="590" x2="406.18" y2="590" stroke="black"
        stroke-width="3"/>
  <text x="421.18" y="596" font-size="25" font-family="Times, serif"
       stroke="black" fill="black">
    tono maggiore accidentale [abweichend]
  </text>
  <line x1="412.17" y1="0" x2="412.17" y2="100%" stroke="gray" stroke-width="1"/>
  <circle cx="181.00" cy="620" r="4" fill="black"/>
  <circle cx="412.17" cy="620" r="4" fill="black"/>
  <line x1="181.00" y1="620" x2="412.17" y2="620" stroke="black"
        stroke-width="3"/>
  <text x="427.17" y="626" font-size="25" font-family="Times, serif"
       stroke="black" fill="black">
    tono maggiore accidentale [mitteltönig]
  </text>
  <line x1="446.71" y1="0" x2="446.71" y2="100%" stroke="gray" stroke-width="1"/>
  <circle cx="181.00" cy="650" r="4" fill="black"/>
  <circle cx="446.71" cy="650" r="4" fill="black"/>
  <line x1="181.00" y1="650" x2="446.71" y2="650" stroke="black"
        stroke-width="3"/>
  <text x="461.71" y="656" font-size="25" font-family="Times, serif"
       stroke="black" fill="black">
    tono maggiore accidentale propinqua [mitteltönig]
  </text>
  <line x1="446.71" y1="0" x2="446.71" y2="100%" stroke="gray" stroke-width="1"/>
  <circle cx="181.00" cy="680" r="4" fill="black"/>
  <circle cx="446.71" cy="680" r="4" fill="black"/>
  <line x1="181.00" y1="680" x2="446.71" y2="680" stroke="black"
        stroke-width="3"/>
  <text x="461.71" y="686" font-size="25" font-family="Times, serif"
       stroke="black" fill="black">
    terza minima [mitteltönig]
  </text>
  <line x1="446.71" y1="0" x2="446.71" y2="100%" stroke="gray" stroke-width="1"/>
  <circle cx="181.00" cy="710" r="4" fill="black"/>
  <circle cx="446.71" cy="710" r="4" fill="black"/>
  <line x1="181.00" y1="710" x2="446.71" y2="710" stroke="black"
        stroke-width="3"/>
  <text x="461.71" y="716" font-size="25" font-family="Times, serif"
       stroke="black" fill="black">
    terza manca del minore [mitteltönig]
  </text>
  <line x1="452.70" y1="0" x2="452.70" y2="100%" stroke="gray" stroke-width="1"/>
  <circle cx="181.00" cy="740" r="4" fill="black"/>
  <circle cx="452.70" cy="740" r="4" fill="black"/>
  <line x1="181.00" y1="740" x2="452.70" y2="740" stroke="black"
        stroke-width="3"/>
  <text x="467.70" y="746" font-size="25" font-family="Times, serif"
       stroke="black" fill="black">
    tono maggiore accidentale propinqua [abweichend]
  </text>
  <line x1="452.70" y1="0" x2="452.70" y2="100%" stroke="gray" stroke-width="1"/>
  <circle cx="181.00" cy="770" r="4" fill="black"/>
  <circle cx="452.70" cy="770" r="4" fill="black"/>
  <line x1="181.00" y1="770" x2="452.70" y2="770" stroke="black"
        stroke-width="3"/>
  <text x="467.70" y="776" font-size="25" font-family="Times, serif"
       stroke="black" fill="black">
    terza minima [abweichend]
  </text>
  <line x1="452.70" y1="0" x2="452.70" y2="100%" stroke="gray" stroke-width="1"/>
  <circle cx="181.00" cy="800" r="4" fill="black"/>
  <circle cx="452.70" cy="800" r="4" fill="black"/>
  <line x1="181.00" y1="800" x2="452.70" y2="800" stroke="black"
        stroke-width="3"/>
  <text x="467.70" y="806" font-size="25" font-family="Times, serif"
       stroke="black" fill="black">
    terza manca del minore [abweichend]
  </text>
  <line x1="481.24" y1="0" x2="481.24" y2="100%" stroke="gray" stroke-width="1"/>
  <circle cx="181.00" cy="830" r="4" fill="black"/>
  <circle cx="481.24" cy="830" r="4" fill="black"/>
  <line x1="181.00" y1="830" x2="481.24" y2="830" stroke="black"
        stroke-width="3"/>
  <text x="496.24" y="836" font-size="25" font-family="Times, serif"
       stroke="black" fill="black">
    terza minore accidentale [abweichend]
  </text>
  <line x1="487.23" y1="0" x2="487.23" y2="100%" stroke="gray" stroke-width="1"/>
  <circle cx="181.00" cy="860" r="4" fill="black"/>
  <circle cx="487.23" cy="860" r="4" fill="black"/>
  <line x1="181.00" y1="860" x2="487.23" y2="860" stroke="black"
        stroke-width="3"/>
  <text x="502.23" y="866" font-size="25" font-family="Times, serif"
       stroke="black" fill="black">
    terza minore naturale [mitteltönig]
  </text>
  <line x1="487.23" y1="0" x2="487.23" y2="100%" stroke="gray" stroke-width="1"/>
  <circle cx="181.00" cy="890" r="4" fill="black"/>
  <circle cx="487.23" cy="890" r="4" fill="black"/>
  <line x1="181.00" y1="890" x2="487.23" y2="890" stroke="black"
        stroke-width="3"/>
  <text x="502.23" y="896" font-size="25" font-family="Times, serif"
       stroke="black" fill="black">
    terza minore accidentale [mitteltönig]
  </text>
  <line x1="492.54" y1="0" x2="492.54" y2="100%" stroke="gray" stroke-width="1"/>
  <circle cx="181.00" cy="920" r="4" fill="black"/>
  <circle cx="492.54" cy="920" r="4" fill="black"/>
  <line x1="181.00" y1="920" x2="492.54" y2="920" stroke="black"
        stroke-width="3"/>
  <text x="507.54" y="926" font-size="25" font-family="Times, serif"
       stroke="black" fill="black">
    terza minore propinquissima [6:5]
  </text>
  <line x1="521.77" y1="0" x2="521.77" y2="100%" stroke="gray" stroke-width="1"/>
  <circle cx="181.00" cy="950" r="4" fill="black"/>
  <circle cx="521.77" cy="950" r="4" fill="black"/>
  <line x1="181.00" y1="950" x2="521.77" y2="950" stroke="black"
        stroke-width="3"/>
  <text x="536.77" y="956" font-size="25" font-family="Times, serif"
       stroke="black" fill="black">
    terza minore propinqua [abweichend]
  </text>
  <line x1="521.77" y1="0" x2="521.77" y2="100%" stroke="gray" stroke-width="1"/>
  <circle cx="181.00" cy="980" r="4" fill="black"/>
  <circle cx="521.77" cy="980" r="4" fill="black"/>
  <line x1="181.00" y1="980" x2="521.77" y2="980" stroke="black"
        stroke-width="3"/>
  <text x="536.77" y="986" font-size="25" font-family="Times, serif"
       stroke="black" fill="black">
    terza più che minore [abweichend]
  </text>
  <line x1="527.76" y1="0" x2="527.76" y2="100%" stroke="gray" stroke-width="1"/>
  <circle cx="181.00" cy="1010" r="4" fill="black"/>
  <circle cx="527.76" cy="1010" r="4" fill="black"/>
  <line x1="181.00" y1="1010" x2="527.76" y2="1010" stroke="black"
        stroke-width="3"/>
  <text x="542.76" y="1016" font-size="25" font-family="Times, serif"
       stroke="black" fill="black">
    terza minore propinqua [mitteltönig]
  </text>
  <line x1="527.76" y1="0" x2="527.76" y2="100%" stroke="gray" stroke-width="1"/>
  <circle cx="181.00" cy="1040" r="4" fill="black"/>
  <circle cx="527.76" cy="1040" r="4" fill="black"/>
  <line x1="181.00" y1="1040" x2="527.76" y2="1040" stroke="black"
        stroke-width="3"/>
  <text x="542.76" y="1046" font-size="25" font-family="Times, serif"
       stroke="black" fill="black">
    terza più che minore [mitteltönig]
  </text>
  <line x1="562.29" y1="0" x2="562.29" y2="100%" stroke="gray" stroke-width="1"/>
  <circle cx="181.00" cy="1070" r="4" fill="black"/>
  <circle cx="562.29" cy="1070" r="4" fill="black"/>
  <line x1="181.00" y1="1070" x2="562.29" y2="1070" stroke="black"
        stroke-width="3"/>
  <text x="577.29" y="1076" font-size="25" font-family="Times, serif"
       stroke="black" fill="black">
    terza maggiore naturale [mitteltönig, 5:4]
  </text>
  <line x1="562.29" y1="0" x2="562.29" y2="100%" stroke="gray" stroke-width="1"/>
  <circle cx="181.00" cy="1100" r="4" fill="black"/>
  <circle cx="562.29" cy="1100" r="4" fill="black"/>
  <line x1="181.00" y1="1100" x2="562.29" y2="1100" stroke="black"
        stroke-width="3"/>
  <text x="577.29" y="1106" font-size="25" font-family="Times, serif"
       stroke="black" fill="black">
    terza maggiore accidentale [mitteltönig, 5:4]
  </text>
  <line x1="567.60" y1="0" x2="567.60" y2="100%" stroke="gray" stroke-width="1"/>
  <circle cx="181.00" cy="1130" r="4" fill="black"/>
  <circle cx="567.60" cy="1130" r="4" fill="black"/>
  <line x1="181.00" y1="1130" x2="567.60" y2="1130" stroke="black"
        stroke-width="3"/>
  <text x="582.60" y="1136" font-size="25" font-family="Times, serif"
       stroke="black" fill="black">
    terza maggiore propinquissima
  </text>
  <line x1="568.28" y1="0" x2="568.28" y2="100%" stroke="gray" stroke-width="1"/>
  <circle cx="181.00" cy="1160" r="4" fill="black"/>
  <circle cx="568.28" cy="1160" r="4" fill="black"/>
  <line x1="181.00" y1="1160" x2="568.28" y2="1160" stroke="black"
        stroke-width="3"/>
  <text x="583.28" y="1166" font-size="25" font-family="Times, serif"
       stroke="black" fill="black">
    terza maggiore accidentale [abweichend]
  </text>
  <line x1="596.83" y1="0" x2="596.83" y2="100%" stroke="gray" stroke-width="1"/>
  <circle cx="181.00" cy="1190" r="4" fill="black"/>
  <circle cx="596.83" cy="1190" r="4" fill="black"/>
  <line x1="181.00" y1="1190" x2="596.83" y2="1190" stroke="black"
        stroke-width="3"/>
  <text x="611.83" y="1196" font-size="25" font-family="Times, serif"
       stroke="black" fill="black">
    terza maggiore propinqua [abweichend]
  </text>
  <line x1="596.83" y1="0" x2="596.83" y2="100%" stroke="gray" stroke-width="1"/>
  <circle cx="181.00" cy="1220" r="4" fill="black"/>
  <circle cx="596.83" cy="1220" r="4" fill="black"/>
  <line x1="181.00" y1="1220" x2="596.83" y2="1220" stroke="black"
        stroke-width="3"/>
  <text x="611.83" y="1226" font-size="25" font-family="Times, serif"
       stroke="black" fill="black">
    terza più che maggiore [abweichend]
  </text>
  <line x1="602.82" y1="0" x2="602.82" y2="100%" stroke="gray" stroke-width="1"/>
  <circle cx="181.00" cy="1250" r="4" fill="black"/>
  <circle cx="602.82" cy="1250" r="4" fill="black"/>
  <line x1="181.00" y1="1250" x2="602.82" y2="1250" stroke="black"
        stroke-width="3"/>
  <text x="617.82" y="1256" font-size="25" font-family="Times, serif"
       stroke="black" fill="black">
    terza maggiore propinqua [mitteltönig]
  </text>
  <line x1="602.82" y1="0" x2="602.82" y2="100%" stroke="gray" stroke-width="1"/>
  <circle cx="181.00" cy="1280" r="4" fill="black"/>
  <circle cx="602.82" cy="1280" r="4" fill="black"/>
  <line x1="181.00" y1="1280" x2="602.82" y2="1280" stroke="black"
        stroke-width="3"/>
  <text x="617.82" y="1286" font-size="25" font-family="Times, serif"
       stroke="black" fill="black">
    terza più che maggiore [mitteltönig]
  </text>
  <line x1="637.35" y1="0" x2="637.35" y2="100%" stroke="gray" stroke-width="1"/>
  <circle cx="181.00" cy="1310" r="4" fill="black"/>
  <circle cx="637.35" cy="1310" r="4" fill="black"/>
  <line x1="181.00" y1="1310" x2="637.35" y2="1310" stroke="black"
        stroke-width="3"/>
  <text x="652.35" y="1316" font-size="25" font-family="Times, serif"
       stroke="black" fill="black">
    [quarta minima, mitteltönig]
  </text>
  <line x1="643.34" y1="0" x2="643.34" y2="100%" stroke="gray" stroke-width="1"/>
  <circle cx="181.00" cy="1340" r="4" fill="black"/>
  <circle cx="643.34" cy="1340" r="4" fill="black"/>
  <line x1="181.00" y1="1340" x2="643.34" y2="1340" stroke="black"
        stroke-width="3"/>
  <text x="658.34" y="1346" font-size="25" font-family="Times, serif"
       stroke="black" fill="black">
    [quarta minima, abweichend]
  </text>
  <line x1="671.89" y1="0" x2="671.89" y2="100%" stroke="gray" stroke-width="1"/>
  <circle cx="181.00" cy="1370" r="4" fill="black"/>
  <circle cx="671.89" cy="1370" r="4" fill="black"/>
  <line x1="181.00" y1="1370" x2="671.89" y2="1370" stroke="black"
        stroke-width="3"/>
  <text x="686.89" y="1376" font-size="25" font-family="Times, serif"
       stroke="black" fill="black">
    quarta accidentale [abweichend]
  </text>
  <line x1="677.88" y1="0" x2="677.88" y2="100%" stroke="gray" stroke-width="1"/>
  <circle cx="181.00" cy="1400" r="4" fill="black"/>
  <circle cx="677.88" cy="1400" r="4" fill="black"/>
  <line x1="181.00" y1="1400" x2="677.88" y2="1400" stroke="black"
        stroke-width="3"/>
  <text x="692.88" y="1406" font-size="25" font-family="Times, serif"
       stroke="black" fill="black">
    quarta naturale [mitteltönig]
  </text>
  <line x1="677.88" y1="0" x2="677.88" y2="100%" stroke="gray" stroke-width="1"/>
  <circle cx="181.00" cy="1430" r="4" fill="black"/>
  <circle cx="677.88" cy="1430" r="4" fill="black"/>
  <line x1="181.00" y1="1430" x2="677.88" y2="1430" stroke="black"
        stroke-width="3"/>
  <text x="692.88" y="1436" font-size="25" font-family="Times, serif"
       stroke="black" fill="black">
    quarta accidentale [mitteltönig]
  </text>
  <line x1="683.18" y1="0" x2="683.18" y2="100%" stroke="gray" stroke-width="1"/>
  <circle cx="181.00" cy="1460" r="4" fill="black"/>
  <circle cx="683.18" cy="1460" r="4" fill="black"/>
  <line x1="181.00" y1="1460" x2="683.18" y2="1460" stroke="black"
        stroke-width="3"/>
  <text x="698.18" y="1466" font-size="25" font-family="Times, serif"
       stroke="black" fill="black">
    quarta propinquissima
  </text>
  <line x1="712.41" y1="0" x2="712.41" y2="100%" stroke="gray" stroke-width="1"/>
  <circle cx="181.00" cy="1490" r="4" fill="black"/>
  <circle cx="712.41" cy="1490" r="4" fill="black"/>
  <line x1="181.00" y1="1490" x2="712.41" y2="1490" stroke="black"
        stroke-width="3"/>
  <text x="727.41" y="1496" font-size="25" font-family="Times, serif"
       stroke="black" fill="black">
    quarta propinqua [abweichend]
  </text>
  <line x1="712.41" y1="0" x2="712.41" y2="100%" stroke="gray" stroke-width="1"/>
  <circle cx="181.00" cy="1520" r="4" fill="black"/>
  <circle cx="712.41" cy="1520" r="4" fill="black"/>
  <line x1="181.00" y1="1520" x2="712.41" y2="1520" stroke="black"
        stroke-width="3"/>
  <text x="727.41" y="1526" font-size="25" font-family="Times, serif"
       stroke="black" fill="black">
    salto più che di quarta [abweichend]
  </text>
  <line x1="718.40" y1="0" x2="718.40" y2="100%" stroke="gray" stroke-width="1"/>
  <circle cx="181.00" cy="1550" r="4" fill="black"/>
  <circle cx="718.40" cy="1550" r="4" fill="black"/>
  <line x1="181.00" y1="1550" x2="718.40" y2="1550" stroke="black"
        stroke-width="3"/>
  <text x="733.40" y="1556" font-size="25" font-family="Times, serif"
       stroke="black" fill="black">
    quarta propinqua [mitteltönig]
  </text>
  <line x1="718.40" y1="0" x2="718.40" y2="100%" stroke="gray" stroke-width="1"/>
  <circle cx="181.00" cy="1580" r="4" fill="black"/>
  <circle cx="718.40" cy="1580" r="4" fill="black"/>
  <line x1="181.00" y1="1580" x2="718.40" y2="1580" stroke="black"
        stroke-width="3"/>
  <text x="733.40" y="1586" font-size="25" font-family="Times, serif"
       stroke="black" fill="black">
    salto più che di quarta [mitteltönig]
  </text>
  <line x1="752.94" y1="0" x2="752.94" y2="100%" stroke="gray" stroke-width="1"/>
  <circle cx="181.00" cy="1610" r="4" fill="black"/>
  <circle cx="752.94" cy="1610" r="4" fill="black"/>
  <line x1="181.00" y1="1610" x2="752.94" y2="1610" stroke="black"
        stroke-width="3"/>
  <text x="767.94" y="1616" font-size="25" font-family="Times, serif"
       stroke="black" fill="black">
    tritono naturale [mitteltönig]
  </text>
  <line x1="752.94" y1="0" x2="752.94" y2="100%" stroke="gray" stroke-width="1"/>
  <circle cx="181.00" cy="1640" r="4" fill="black"/>
  <circle cx="752.94" cy="1640" r="4" fill="black"/>
  <line x1="181.00" y1="1640" x2="752.94" y2="1640" stroke="black"
        stroke-width="3"/>
  <text x="767.94" y="1646" font-size="25" font-family="Times, serif"
       stroke="black" fill="black">
    tritono accidentale [mitteltönig]
  </text>
  <line x1="758.93" y1="0" x2="758.93" y2="100%" stroke="gray" stroke-width="1"/>
  <circle cx="181.00" cy="1670" r="4" fill="black"/>
  <circle cx="758.93" cy="1670" r="4" fill="black"/>
  <line x1="181.00" y1="1670" x2="758.93" y2="1670" stroke="black"
        stroke-width="3"/>
  <text x="773.93" y="1676" font-size="25" font-family="Times, serif"
       stroke="black" fill="black">
    tritono accidentale [abweichend]
  </text>
  <line x1="787.47" y1="0" x2="787.47" y2="100%" stroke="gray" stroke-width="1"/>
  <circle cx="181.00" cy="1700" r="4" fill="black"/>
  <circle cx="787.47" cy="1700" r="4" fill="black"/>
  <line x1="181.00" y1="1700" x2="787.47" y2="1700" stroke="black"
        stroke-width="3"/>
  <text x="802.47" y="1706" font-size="25" font-family="Times, serif"
       stroke="black" fill="black">
    quinta imperfetta accidentale [abweichend]
  </text>
  <line x1="793.46" y1="0" x2="793.46" y2="100%" stroke="gray" stroke-width="1"/>
  <circle cx="181.00" cy="1730" r="4" fill="black"/>
  <circle cx="793.46" cy="1730" r="4" fill="black"/>
  <line x1="181.00" y1="1730" x2="793.46" y2="1730" stroke="black"
        stroke-width="3"/>
  <text x="808.46" y="1736" font-size="25" font-family="Times, serif"
       stroke="black" fill="black">
    quinta imperfetta naturale [mitteltönig]
  </text>
  <line x1="793.46" y1="0" x2="793.46" y2="100%" stroke="gray" stroke-width="1"/>
  <circle cx="181.00" cy="1760" r="4" fill="black"/>
  <circle cx="793.46" cy="1760" r="4" fill="black"/>
  <line x1="181.00" y1="1760" x2="793.46" y2="1760" stroke="black"
        stroke-width="3"/>
  <text x="808.46" y="1766" font-size="25" font-family="Times, serif"
       stroke="black" fill="black">
    quinta imperfetta accidentale [mitteltönig]
  </text>
  <line x1="828.00" y1="0" x2="828.00" y2="100%" stroke="gray" stroke-width="1"/>
  <circle cx="181.00" cy="1790" r="4" fill="black"/>
  <circle cx="828.00" cy="1790" r="4" fill="black"/>
  <line x1="181.00" y1="1790" x2="828.00" y2="1790" stroke="black"
        stroke-width="3"/>
  <text x="843.00" y="1796" font-size="25" font-family="Times, serif"
       stroke="black" fill="black">
    quinta imperfetta propinqua [abweichend]
  </text>
  <line x1="828.00" y1="0" x2="828.00" y2="100%" stroke="gray" stroke-width="1"/>
  <circle cx="181.00" cy="1820" r="4" fill="black"/>
  <circle cx="828.00" cy="1820" r="4" fill="black"/>
  <line x1="181.00" y1="1820" x2="828.00" y2="1820" stroke="black"
        stroke-width="3"/>
  <text x="843.00" y="1826" font-size="25" font-family="Times, serif"
       stroke="black" fill="black">
    quinta più che imperfetta [abweichend]
  </text>
  <line x1="833.99" y1="0" x2="833.99" y2="100%" stroke="gray" stroke-width="1"/>
  <circle cx="181.00" cy="1850" r="4" fill="black"/>
  <circle cx="833.99" cy="1850" r="4" fill="black"/>
  <line x1="181.00" y1="1850" x2="833.99" y2="1850" stroke="black"
        stroke-width="3"/>
  <text x="848.99" y="1856" font-size="25" font-family="Times, serif"
       stroke="black" fill="black">
    quinta imperfetta propinqua [mitteltönig]
  </text>
  <line x1="833.99" y1="0" x2="833.99" y2="100%" stroke="gray" stroke-width="1"/>
  <circle cx="181.00" cy="1880" r="4" fill="black"/>
  <circle cx="833.99" cy="1880" r="4" fill="black"/>
  <line x1="181.00" y1="1880" x2="833.99" y2="1880" stroke="black"
        stroke-width="3"/>
  <text x="848.99" y="1886" font-size="25" font-family="Times, serif"
       stroke="black" fill="black">
    quinta più che imperfetta [mitteltönig]
  </text>
  <line x1="868.52" y1="0" x2="868.52" y2="100%" stroke="gray" stroke-width="1"/>
  <circle cx="181.00" cy="1910" r="4" fill="black"/>
  <circle cx="868.52" cy="1910" r="4" fill="black"/>
  <line x1="181.00" y1="1910" x2="868.52" y2="1910" stroke="black"
        stroke-width="3"/>
  <text x="883.52" y="1916" font-size="25" font-family="Times, serif"
       stroke="black" fill="black">
    quinta naturale [mitteltönig]
  </text>
  <line x1="868.52" y1="0" x2="868.52" y2="100%" stroke="gray" stroke-width="1"/>
  <circle cx="181.00" cy="1940" r="4" fill="black"/>
  <circle cx="868.52" cy="1940" r="4" fill="black"/>
  <line x1="181.00" y1="1940" x2="868.52" y2="1940" stroke="black"
        stroke-width="3"/>
  <text x="883.52" y="1946" font-size="25" font-family="Times, serif"
       stroke="black" fill="black">
    quinta accidentale [mitteltönig]
  </text>
  <line x1="874.51" y1="0" x2="874.51" y2="100%" stroke="gray" stroke-width="1"/>
  <circle cx="181.00" cy="1970" r="4" fill="black"/>
  <circle cx="874.51" cy="1970" r="4" fill="black"/>
  <line x1="181.00" y1="1970" x2="874.51" y2="1970" stroke="black"
        stroke-width="3"/>
  <text x="889.51" y="1976" font-size="25" font-family="Times, serif"
       stroke="black" fill="black">
    quinta accidentale [abweichend]
  </text>
  <line x1="873.83" y1="0" x2="873.83" y2="100%" stroke="gray" stroke-width="1"/>
  <circle cx="181.00" cy="2000" r="4" fill="black"/>
  <circle cx="873.83" cy="2000" r="4" fill="black"/>
  <line x1="181.00" y1="2000" x2="873.83" y2="2000" stroke="black"
        stroke-width="3"/>
  <text x="888.83" y="2006" font-size="25" font-family="Times, serif"
       stroke="black" fill="black">
    quinta propinquissima [abweichend]
  </text>
  <line x1="903.06" y1="0" x2="903.06" y2="100%" stroke="gray" stroke-width="1"/>
  <circle cx="181.00" cy="2030" r="4" fill="black"/>
  <circle cx="903.06" cy="2030" r="4" fill="black"/>
  <line x1="181.00" y1="2030" x2="903.06" y2="2030" stroke="black"
        stroke-width="3"/>
  <text x="918.06" y="2036" font-size="25" font-family="Times, serif"
       stroke="black" fill="black">
    quinta propinqua [abweichend]
  </text>
  <line x1="903.06" y1="0" x2="903.06" y2="100%" stroke="gray" stroke-width="1"/>
  <circle cx="181.00" cy="2060" r="4" fill="black"/>
  <circle cx="903.06" cy="2060" r="4" fill="black"/>
  <line x1="181.00" y1="2060" x2="903.06" y2="2060" stroke="black"
        stroke-width="3"/>
  <text x="918.06" y="2066" font-size="25" font-family="Times, serif"
       stroke="black" fill="black">
    salto più che di quinta [abweichend]
  </text>
  <line x1="909.05" y1="0" x2="909.05" y2="100%" stroke="gray" stroke-width="1"/>
  <circle cx="181.00" cy="2090" r="4" fill="black"/>
  <circle cx="909.05" cy="2090" r="4" fill="black"/>
  <line x1="181.00" y1="2090" x2="909.05" y2="2090" stroke="black"
        stroke-width="3"/>
  <text x="924.05" y="2096" font-size="25" font-family="Times, serif"
       stroke="black" fill="black">
    quinta propinqua [mitteltönig]
  </text>
  <line x1="909.05" y1="0" x2="909.05" y2="100%" stroke="gray" stroke-width="1"/>
  <circle cx="181.00" cy="2120" r="4" fill="black"/>
  <circle cx="909.05" cy="2120" r="4" fill="black"/>
  <line x1="181.00" y1="2120" x2="909.05" y2="2120" stroke="black"
        stroke-width="3"/>
  <text x="924.05" y="2126" font-size="25" font-family="Times, serif"
       stroke="black" fill="black">
    salto più che di quinta [mitteltönig]
  </text>
  <line x1="1365.40" y1="0" x2="1365.40" y2="100%" stroke="gray"
        stroke-width="1"/>
  <circle cx="181.00" cy="2150" r="4" fill="black"/>
  <circle cx="1365.40" cy="2150" r="4" fill="black"/>
  <line x1="181.00" y1="2150" x2="1365.40" y2="2150" stroke="black"
        stroke-width="3"/>
  <text x="1380.40" y="2156" font-size="25" font-family="Times, serif"
       stroke="black" fill="black">
    ottava
  </text>
</svg>
