<?xml version="1.0" standalone="no"?>
<svg height="600" width="5100" version="1.2" id="toplevel"
    xmlns="http://www.w3.org/2000/svg"
    xmlns:xlink="http://www.w3.org/1999/xlink">
  <rect x="0" y="0" width="100%" height="100%" fill="white"/>
  <text x="0" y="0" stroke="black" fill="black" font-family="Times, serif"
       font-size="35" text-anchor="end" transform="translate(60,30) rotate(270)">
    Intervalle der Reinen Stimmung.
  </text>
  <line x1="181.00" y1="0" x2="181.00" y2="100%" stroke="black" stroke-width="3"/>
  <circle cx="181.00" cy="50" r="4" fill="black"/>
  <circle cx="181.00" cy="50" r="4" fill="black"/>
  <line x1="181.00" y1="50" x2="181.00" y2="50" stroke="black" stroke-width="3"/>
  <text x="196.00" y="56" font-size="25" font-family="Times, serif"
       stroke="black" fill="black">
    1:1 [Unisono]
  </text>
  <line x1="202.23" y1="0" x2="202.23" y2="100%" stroke="gray" stroke-width="1"/>
  <circle cx="181.00" cy="80" r="4" fill="black"/>
  <circle cx="202.23" cy="80" r="4" fill="black"/>
  <line x1="181.00" y1="80" x2="202.23" y2="80" stroke="black" stroke-width="3"/>
  <text x="217.23" y="86" font-size="25" font-family="Times, serif"
       stroke="black" fill="black">
    81:80 [syntonisches Komma]
  </text>
  <line x1="250.75" y1="0" x2="250.75" y2="100%" stroke="gray" stroke-width="1"/>
  <circle cx="181.00" cy="110" r="4" fill="black"/>
  <circle cx="250.75" cy="110" r="4" fill="black"/>
  <line x1="181.00" y1="110" x2="250.75" y2="110" stroke="black"
        stroke-width="3"/>
  <text x="265.75" y="116" font-size="25" font-family="Times, serif"
       stroke="black" fill="black">
    25:24 [chromatischer Halbton, übermässige Prime]
  </text>
  <line x1="291.28" y1="0" x2="291.28" y2="100%" stroke="gray" stroke-width="1"/>
  <circle cx="181.00" cy="140" r="4" fill="black"/>
  <circle cx="291.28" cy="140" r="4" fill="black"/>
  <line x1="181.00" y1="140" x2="291.28" y2="140" stroke="black"
        stroke-width="3"/>
  <text x="306.28" y="146" font-size="25" font-family="Times, serif"
       stroke="black" fill="black">
    16:15 [diatonischer Halbton, kleine Sekunde]
  </text>
  <line x1="361.03" y1="0" x2="361.03" y2="100%" stroke="gray" stroke-width="1"/>
  <circle cx="181.00" cy="170" r="4" fill="black"/>
  <circle cx="361.03" cy="170" r="4" fill="black"/>
  <line x1="181.00" y1="170" x2="361.03" y2="170" stroke="black"
        stroke-width="3"/>
  <text x="376.03" y="176" font-size="25" font-family="Times, serif"
       stroke="black" fill="black">
    10:9 [kleiner Ganzton, grosse Sekunde]
  </text>
  <line x1="382.26" y1="0" x2="382.26" y2="100%" stroke="gray" stroke-width="1"/>
  <circle cx="181.00" cy="200" r="4" fill="black"/>
  <circle cx="382.26" cy="200" r="4" fill="black"/>
  <line x1="181.00" y1="200" x2="382.26" y2="200" stroke="black"
        stroke-width="3"/>
  <text x="397.26" y="206" font-size="25" font-family="Times, serif"
       stroke="black" fill="black">
    9:8 [grosser Ganzton, grosse Sekunde]
  </text>
  <line x1="409.17" y1="0" x2="409.17" y2="100%" stroke="gray" stroke-width="1"/>
  <circle cx="181.00" cy="230" r="4" fill="black"/>
  <circle cx="409.17" cy="230" r="4" fill="black"/>
  <line x1="181.00" y1="230" x2="409.17" y2="230" stroke="black"
        stroke-width="3"/>
  <text x="424.17" y="236" font-size="25" font-family="Times, serif"
       stroke="black" fill="black">
    8:7 [septimaler Ganzton]
  </text>
  <line x1="444.40" y1="0" x2="444.40" y2="100%" stroke="gray" stroke-width="1"/>
  <circle cx="181.00" cy="260" r="4" fill="black"/>
  <circle cx="444.40" cy="260" r="4" fill="black"/>
  <line x1="181.00" y1="260" x2="444.40" y2="260" stroke="black"
        stroke-width="3"/>
  <text x="459.40" y="266" font-size="25" font-family="Times, serif"
       stroke="black" fill="black">
    7:6 [septimale Terz]
  </text>
  <line x1="492.54" y1="0" x2="492.54" y2="100%" stroke="gray" stroke-width="1"/>
  <circle cx="181.00" cy="290" r="4" fill="black"/>
  <circle cx="492.54" cy="290" r="4" fill="black"/>
  <line x1="181.00" y1="290" x2="492.54" y2="290" stroke="black"
        stroke-width="3"/>
  <text x="507.54" y="296" font-size="25" font-family="Times, serif"
       stroke="black" fill="black">
    6:5 [kleine Terz]
  </text>
  <line x1="562.29" y1="0" x2="562.29" y2="100%" stroke="gray" stroke-width="1"/>
  <circle cx="181.00" cy="320" r="4" fill="black"/>
  <circle cx="562.29" cy="320" r="4" fill="black"/>
  <line x1="181.00" y1="320" x2="562.29" y2="320" stroke="black"
        stroke-width="3"/>
  <text x="577.29" y="326" font-size="25" font-family="Times, serif"
       stroke="black" fill="black">
    5:4 [grosse Terz]
  </text>
  <line x1="672.57" y1="0" x2="672.57" y2="100%" stroke="gray" stroke-width="1"/>
  <circle cx="181.00" cy="350" r="4" fill="black"/>
  <circle cx="672.57" cy="350" r="4" fill="black"/>
  <line x1="181.00" y1="350" x2="672.57" y2="350" stroke="black"
        stroke-width="3"/>
  <text x="687.57" y="356" font-size="25" font-family="Times, serif"
       stroke="black" fill="black">
    4:3 [Quarte]
  </text>
  <line x1="873.83" y1="0" x2="873.83" y2="100%" stroke="gray" stroke-width="1"/>
  <circle cx="181.00" cy="380" r="4" fill="black"/>
  <circle cx="873.83" cy="380" r="4" fill="black"/>
  <line x1="181.00" y1="380" x2="873.83" y2="380" stroke="black"
        stroke-width="3"/>
  <text x="888.83" y="386" font-size="25" font-family="Times, serif"
       stroke="black" fill="black">
    3:2 [Quinte]
  </text>
  <line x1="984.11" y1="0" x2="984.11" y2="100%" stroke="gray" stroke-width="1"/>
  <circle cx="181.00" cy="410" r="4" fill="black"/>
  <circle cx="984.11" cy="410" r="4" fill="black"/>
  <line x1="181.00" y1="410" x2="984.11" y2="410" stroke="black"
        stroke-width="3"/>
  <text x="999.11" y="416" font-size="25" font-family="Times, serif"
       stroke="black" fill="black">
    8:5 [kleine Sexte]
  </text>
  <line x1="1053.86" y1="0" x2="1053.86" y2="100%" stroke="gray"
        stroke-width="1"/>
  <circle cx="181.00" cy="440" r="4" fill="black"/>
  <circle cx="1053.86" cy="440" r="4" fill="black"/>
  <line x1="181.00" y1="440" x2="1053.86" y2="440" stroke="black"
        stroke-width="3"/>
  <text x="1068.86" y="446" font-size="25" font-family="Times, serif"
       stroke="black" fill="black">
    5:3 [grosse Sexte]
  </text>
  <line x1="1137.23" y1="0" x2="1137.23" y2="100%" stroke="gray"
        stroke-width="1"/>
  <circle cx="181.00" cy="470" r="4" fill="black"/>
  <circle cx="1137.23" cy="470" r="4" fill="black"/>
  <line x1="181.00" y1="470" x2="1137.23" y2="470" stroke="black"
        stroke-width="3"/>
  <text x="1152.23" y="476" font-size="25" font-family="Times, serif"
       stroke="black" fill="black">
    7:4 [natürliche Septime]
  </text>
  <line x1="1365.40" y1="0" x2="1365.40" y2="100%" stroke="gray"
        stroke-width="1"/>
  <circle cx="181.00" cy="500" r="4" fill="black"/>
  <circle cx="1365.40" cy="500" r="4" fill="black"/>
  <line x1="181.00" y1="500" x2="1365.40" y2="500" stroke="black"
        stroke-width="3"/>
  <text x="1380.40" y="506" font-size="25" font-family="Times, serif"
       stroke="black" fill="black">
    2:1 [Oktave]
  </text>
</svg>
